<svg xmlns="http://www.w3.org/2000/svg" width="19.25" height="21.25" viewBox="0 0 19.25 21.25">
  <g id="Calender" transform="translate(0.625 0.625)">
    <g id="Icon_feather-calendar" data-name="Icon feather-calendar">
      <path id="Path_70730" data-name="Path 70730" d="M6.5,6h14a2,2,0,0,1,2,2V22a2,2,0,0,1-2,2H6.5a2,2,0,0,1-2-2V8a2,2,0,0,1,2-2Z" transform="translate(-4.5 -4)" fill="none" stroke="#5b31db" stroke-linecap="round" stroke-linejoin="round" stroke-width="1.25"/>
      <path id="Path_70731" data-name="Path 70731" d="M24,3V7" transform="translate(-11 -3)" fill="none" stroke="#5b31db" stroke-linecap="round" stroke-linejoin="round" stroke-width="1.25"/>
      <path id="Path_70732" data-name="Path 70732" d="M12,3V7" transform="translate(-7 -3)" fill="none" stroke="#5b31db" stroke-linecap="round" stroke-linejoin="round" stroke-width="1.25"/>
      <path id="Path_70733" data-name="Path 70733" d="M4.5,15h18" transform="translate(-4.5 -7)" fill="none" stroke="#5b31db" stroke-linecap="round" stroke-linejoin="round" stroke-width="1.25"/>
    </g>
    <g id="Group_18415" data-name="Group 18415" transform="translate(6 10.5)">
      <line id="Line_222" data-name="Line 222" y2="6" transform="translate(3)" fill="none" stroke="#5b31db" stroke-linecap="round" stroke-width="1"/>
      <line id="Line_223" data-name="Line 223" y2="6" transform="translate(6 3) rotate(90)" fill="none" stroke="#5b31db" stroke-linecap="round" stroke-width="1"/>
    </g>
  </g>
</svg>
