<svg xmlns="http://www.w3.org/2000/svg" width="39" height="39" viewBox="0 0 39 39">
  <g id="My_Events" data-name="My Events" transform="translate(-28 -273)">
    <circle id="Ellipse_287" data-name="Ellipse 287" cx="19.5" cy="19.5" r="19.5" transform="translate(28 273)" fill="#f8f8f9"/>
    <g id="Group_18364" data-name="Group 18364" transform="translate(1 2)">
      <path id="Path_70730" data-name="Path 70730" d="M6.5,6h14a2,2,0,0,1,2,2V22a2,2,0,0,1-2,2H6.5a2,2,0,0,1-2-2V8a2,2,0,0,1,2-2Z" transform="translate(33.5 277)" fill="none" stroke="#000" stroke-linecap="round" stroke-linejoin="round" stroke-width="1.25"/>
      <path id="Path_70731" data-name="Path 70731" d="M24,3V7" transform="translate(27 278)" fill="none" stroke="#000" stroke-linecap="round" stroke-linejoin="round" stroke-width="1.25"/>
      <path id="Path_70732" data-name="Path 70732" d="M12,3V7" transform="translate(31 278)" fill="none" stroke="#000" stroke-linecap="round" stroke-linejoin="round" stroke-width="1.25"/>
      <path id="Path_70733" data-name="Path 70733" d="M4.5,15h18" transform="translate(33.5 274)" fill="none" stroke="#000" stroke-linecap="round" stroke-linejoin="round" stroke-width="1.25"/>
      <path id="Path_70801" data-name="Path 70801" d="M2642.907,423.555l1.819,1.819,4.2-4.2" transform="translate(-2598.914 -129)" fill="none" stroke="#000" stroke-linecap="round" stroke-linejoin="round" stroke-width="1.25"/>
    </g>
  </g>
</svg>
