<svg xmlns="http://www.w3.org/2000/svg" width="32" height="32" viewBox="0 0 32 32">
  <g id="Refund" transform="translate(-200 -504)">
    <circle id="Ellipse_287" data-name="Ellipse 287" cx="16" cy="16" r="16" transform="translate(200 504)" fill="#eee7fa"/>
    <g id="Group_18357" data-name="Group 18357">
      <path id="Ellipse_319" data-name="Ellipse 319" d="M6.623,0a7.571,7.571,0,0,1,0,15.141h-1.1l-.012,0H5.309l-.012,0-.012,0-.012,0-.011,0-.012,0-.012,0-.012,0-.012,0-.011,0h0l-.011,0h0l-.011,0-.012,0h0l-.011,0h0l-.023,0h0l-.046-.009h0q-.124-.026-.246-.055h0q-.367-.089-.72-.212h0q-.117-.041-.233-.086h0l-.054-.021h0l-.011,0h0l-.011,0h0l-.011,0h0l-.01,0h0l-.01,0h0l-.01,0h0l-.01,0h0l-.01,0h0l-.01,0h0l-.01,0h0l-.01,0h0l-.01,0h0l-.01,0h0l-.01,0h0l-.01,0,0,0h0l-.006,0,0,0-.006,0,0,0h0l-.005,0,0,0h0l-.005,0,0,0-.006,0,0,0-.006,0,0,0-.006,0,0,0-.006,0,0,0h0l-.005,0,0,0-.006,0,0,0-.006,0,0,0-.006,0,0,0-.006,0,0,0-.006,0,0,0,0,0-.006,0-.006,0,0,0,0,0-.006,0,0,0-.006,0,0,0-.006,0,0,0-.006,0,0,0-.006,0,0,0-.005,0,0,0-.006,0,0,0-.005,0,0,0-.005,0-.005,0-.005,0-.005,0-.005,0-.005,0-.005,0-.005,0,0,0,0,0h0l0,0,0,0h0l0,0,0,0h0l-.009,0h0l-.009,0h0l-.009,0h0l0,0h0l0,0h0l-.009,0h0l-.01,0h0l-.01,0h0l-.01,0h0l-.01,0h0l-.01-.005h0a7.6,7.6,0,0,1-2.149-1.608h0l-.015-.017h0l-.011-.012h0l0,0h0l-.011-.012h0l0,0h0l-.011-.012h0l0,0h0l-.01-.012h0l0,0h0L1,12.641H1l0,0H1l-.007-.008h0l0,0h0l0,0h0l-.007-.008h0l0,0h0l0,0h0l-.006-.007h0l0,0h0l0,0h0l-.006-.007h0l0,0h0l0,0h0L.929,12.56h0l0,0h0l0,0h0l-.006-.007h0l0,0h0l0,0h0L.9,12.527l0,0,0,0,0,0-.009-.01,0,0,0,0,0,0-.009-.01,0,0,0,0,0,0,0,0,0,0,0,0,0,0,0,0,0,0,0,0,0,0,0,0,0,0,0,0,0,0,0,0,0,0,0,0,0,0,0,0,0,0,0,0,0,0,0,0,0,0,0,0,0,0,0,0,0,0,0,0,0,0,0,0,0,0,0,0,0,0,0,0,0,0,0,0,0,0,0,0,0,0,0,0,0,0,0,0,0,0,0,0,0,0,0,0,0,0,0,0,0,0v0l0,0,0,0,0,0,0,0,0-.005h0l0,0,0,0,0,0v0l0-.005h0l0,0v0l0,0v0l0-.005h0l0,0v0l0,0h0l0-.005h0l0,0v0l0,0v0l0-.005h0l0,0h0l0,0h0l0-.005h0l0,0h0l0,0h0l0-.006h0l0,0h0l0,0h0l0-.006h0l0,0h0l0-.005h0l0-.006h0l0,0h0L.6,12.163h0l0,0h0l-.009-.011h0l0,0h0l-.009-.012h0l0-.005h0l-.009-.012h0l0-.006h0L.548,12.09h0l0-.006h0l-.009-.012h0l0-.006h0l-.009-.012h0l-.013-.018h0l-.013-.018h0L.48,12h0l-.013-.018h0q-.218-.3-.406-.63a.451.451,0,1,1,.781-.45A6.67,6.67,0,1,0,6.623.9a.451.451,0,1,1,0-.9Z" transform="translate(225.749 516.046) rotate(107)" fill="#3c3c3c"/>
      <path id="Rectangle_8895" data-name="Rectangle 8895" d="M.9.9V5.588H6.309V.9H.9M.721,0H6.489A.721.721,0,0,1,7.21.721V5.768a.721.721,0,0,1-.721.721H.721A.721.721,0,0,1,0,5.768V.721A.721.721,0,0,1,.721,0Z" transform="translate(213.328 516.921)" fill="#3c3c3c"/>
      <path id="Line_158" data-name="Line 158" d="M-.174,2.439a.451.451,0,0,1-.451-.451V-.174A.451.451,0,0,1-.174-.625a.451.451,0,0,1,.451.451V1.989A.451.451,0,0,1-.174,2.439Z" transform="translate(217.107 518.177)" fill="#3c3c3c"/>
      <path id="Path_70801" data-name="Path 70801" d="M2409.579,1053.741a.361.361,0,0,1-.3-.562l.864-1.287-1.407-.517a.36.36,0,0,1,.248-.677l1.838.675a.36.36,0,0,1,.175.539l-1.119,1.668A.36.36,0,0,1,2409.579,1053.741Z" transform="translate(-2195.25 -538.676)" fill="#3c3c3c"/>
    </g>
  </g>
</svg>
