<svg xmlns="http://www.w3.org/2000/svg" width="39" height="39" viewBox="0 0 39 39">
  <g id="Settings" transform="translate(-196 -273)">
    <circle id="Ellipse_287" data-name="Ellipse 287" cx="19.5" cy="19.5" r="19.5" transform="translate(196 273)" fill="#f8f8f9"/>
    <g id="Group_18366" data-name="Group 18366">
      <circle id="Ellipse_291" data-name="Ellipse 291" cx="3" cy="3" r="3" transform="translate(213 289.771)" fill="none" stroke="#000" stroke-linecap="round" stroke-linejoin="round" stroke-width="1.25"/>
      <path id="Path_70638" data-name="Path 70638" d="M19.4,15a1.65,1.65,0,0,0,.33,1.82l.06.06a2,2,0,1,1-2.83,2.83l-.06-.06a1.663,1.663,0,0,0-2.82,1.18V21a2,2,0,0,1-4,0v-.09A1.65,1.65,0,0,0,9,19.4a1.65,1.65,0,0,0-1.82.33l-.06.06a2,2,0,1,1-2.83-2.83l.06-.06a1.663,1.663,0,0,0-1.18-2.82H3a2,2,0,1,1,0-4h.09A1.65,1.65,0,0,0,4.6,9a1.65,1.65,0,0,0-.33-1.82l-.06-.06A2,2,0,1,1,7.04,4.29l.06.06a1.65,1.65,0,0,0,1.82.33H9a1.65,1.65,0,0,0,1-1.51V3a2,2,0,0,1,4,0v.09a1.663,1.663,0,0,0,2.82,1.18l.06-.06a2,2,0,1,1,2.83,2.83l-.06.06a1.65,1.65,0,0,0-.33,1.82V9a1.65,1.65,0,0,0,1.51,1H21a2,2,0,0,1,0,4h-.09A1.65,1.65,0,0,0,19.4,15Z" transform="translate(204 281)" fill="none" stroke="#000" stroke-linecap="round" stroke-linejoin="round" stroke-width="1.25"/>
    </g>
  </g>
</svg>
